# xmcd CD database file
#
# Track frame offsets:
#	150
#	25644
#	62978
#	91324
#	129109
#	152928
#	176353
#	197926
#
# Disc length: 3119 seconds
#
# Revision: 2
# Processed by: cddbd v1.5.1PL0 Copyright (c) Steve Scherf et al.
# Submitted via: CDex 1.51
#
DISCID=610c2d08
DTITLE=Carlos Barretto - Suite da Terra
DYEAR=1998
DGENRE=Jazz
TTITLE0=Alem Tejo Aqui Tao Perto
TTITLE1=Cancao da Lua
TTITLE2=Terra de N'gumbe
TTITLE3=Terra de Ninguem
TTITLE4=Let's Goa
TTITLE5=3.4.7.
TTITLE6=Meditenaneando
TTITLE7=Balança Terra
EXTD=YEAR: 1998
EXTT0=
EXTT1=
EXTT2=
EXTT3=
EXTT4=
EXTT5=
EXTT6=
EXTT7=
PLAYORDER=
